%FSLAX25Y25*%
%MOIN*%
G70*
G01*
G75*
G04 Layer_Color=8421504*
%ADD10R,0.05118X0.12992*%
%ADD11R,0.01969X0.12992*%
%ADD12R,0.01575X0.01969*%
%ADD13R,0.04331X0.03543*%
%ADD14R,0.03543X0.04331*%
%ADD15C,0.01000*%
%ADD16R,0.05906X0.05906*%
%ADD17C,0.05906*%
%ADD18R,0.05906X0.05906*%
%ADD19C,0.05000*%
%ADD20C,0.14950*%
%ADD21C,0.00787*%
%ADD22C,0.00800*%
%ADD23C,0.00700*%
%ADD24C,0.01500*%
%ADD25C,0.02000*%
%ADD26C,0.01200*%
D10*
X172000Y230000D02*
D03*
X288000Y270000D02*
D03*
X172000Y310000D02*
D03*
X288000Y230000D02*
D03*
X172000Y270000D02*
D03*
X288000Y310000D02*
D03*
D11*
X177512Y230000D02*
D03*
X166488D02*
D03*
X282488Y270000D02*
D03*
X293512D02*
D03*
X177512Y310000D02*
D03*
X166488D02*
D03*
X282488Y230000D02*
D03*
X293512D02*
D03*
X177512Y270000D02*
D03*
X166488D02*
D03*
X282488Y310000D02*
D03*
X293512D02*
D03*
D12*
X179283Y230000D02*
D03*
X164716D02*
D03*
X280716Y270000D02*
D03*
X295284D02*
D03*
X179283Y310000D02*
D03*
X164716D02*
D03*
X280716Y230000D02*
D03*
X295284D02*
D03*
X179283Y270000D02*
D03*
X164716D02*
D03*
X280716Y310000D02*
D03*
X295284D02*
D03*
D13*
X168000Y216000D02*
D03*
X175874D02*
D03*
X292000D02*
D03*
X284126D02*
D03*
X292000Y256000D02*
D03*
X284126D02*
D03*
X168000D02*
D03*
X175874D02*
D03*
X168000Y296000D02*
D03*
X175874D02*
D03*
X292000D02*
D03*
X284126D02*
D03*
D14*
X250000Y302000D02*
D03*
Y309874D02*
D03*
M02*
