%FSLAX25Y25*%
%MOIN*%
G70*
G01*
G75*
G04 Layer_Color=65535*
%ADD10R,0.05118X0.12992*%
%ADD11R,0.01969X0.12992*%
%ADD12R,0.01575X0.01969*%
%ADD13R,0.04331X0.03543*%
%ADD14R,0.03543X0.04331*%
%ADD15C,0.01000*%
%ADD16R,0.05906X0.05906*%
%ADD17C,0.05906*%
%ADD18R,0.05906X0.05906*%
%ADD19C,0.05000*%
%ADD20C,0.14950*%
%ADD21C,0.00787*%
%ADD22C,0.00800*%
%ADD23C,0.00700*%
G36*
X229482Y267975D02*
X229865D01*
Y267592D01*
Y267208D01*
X230248D01*
Y266825D01*
X231398D01*
Y266442D01*
X231015D01*
Y266058D01*
X232165D01*
Y265675D01*
Y265292D01*
X232931D01*
Y264909D01*
X233314D01*
Y264525D01*
X239447D01*
Y264142D01*
X239064D01*
Y263759D01*
X238681D01*
Y263375D01*
X238297D01*
Y262992D01*
X231781D01*
Y263375D01*
X231398D01*
Y263759D01*
X231015D01*
Y264142D01*
X230631D01*
Y264525D01*
X230248D01*
Y264909D01*
X229865D01*
Y265292D01*
X229482D01*
Y265675D01*
X229098D01*
Y266058D01*
X228715D01*
Y266442D01*
X228332D01*
Y266825D01*
X227948D01*
Y267208D01*
X227565D01*
Y267592D01*
X222966D01*
Y267208D01*
X222582D01*
Y267592D01*
Y267975D01*
X222966D01*
Y268358D01*
X229482D01*
Y267975D01*
D02*
G37*
G36*
X233314Y268358D02*
X235231D01*
Y267975D01*
X236764D01*
Y267592D01*
X237147D01*
Y267208D01*
X236764D01*
Y267592D01*
X235998D01*
Y267208D01*
X235231D01*
Y266825D01*
X234464D01*
Y267208D01*
Y267592D01*
X234081D01*
Y267975D01*
X232931D01*
Y268358D01*
X232548D01*
Y268742D01*
X233314D01*
Y268358D01*
D02*
G37*
G36*
X232165Y269508D02*
Y269125D01*
X231781D01*
Y269508D01*
Y269892D01*
X232165D01*
Y269508D01*
D02*
G37*
G36*
X226799Y263759D02*
X227182D01*
Y263375D01*
X227565D01*
Y262992D01*
X227948D01*
Y262609D01*
X221816D01*
Y262992D01*
Y263375D01*
X221432D01*
Y263759D01*
X221049D01*
Y264142D01*
X226799D01*
Y263759D01*
D02*
G37*
G36*
X230631Y256476D02*
Y256093D01*
Y255710D01*
Y255326D01*
X230248D01*
Y254943D01*
Y254560D01*
Y254176D01*
X229865D01*
Y254560D01*
Y254943D01*
Y255326D01*
X229482D01*
Y255710D01*
Y256093D01*
Y256476D01*
Y256859D01*
X230631D01*
Y256476D01*
D02*
G37*
G36*
X219899Y281007D02*
Y280624D01*
Y280241D01*
X219516D01*
Y279857D01*
X218749D01*
Y279474D01*
Y279091D01*
Y278707D01*
X218366D01*
Y278324D01*
Y277941D01*
X217599D01*
Y277557D01*
X217983D01*
Y277174D01*
Y276791D01*
X217216D01*
Y276408D01*
Y276024D01*
X216833D01*
Y275641D01*
Y275258D01*
Y274874D01*
Y274491D01*
X216449D01*
Y274108D01*
Y273725D01*
Y273341D01*
X217216D01*
Y273725D01*
Y274108D01*
X217983D01*
Y274491D01*
Y274874D01*
X218366D01*
Y275258D01*
X218749D01*
Y275641D01*
Y276024D01*
X219516D01*
Y276408D01*
X219132D01*
Y276791D01*
X219516D01*
Y277174D01*
X220282D01*
Y277557D01*
Y277941D01*
Y278324D01*
X220666D01*
Y278707D01*
X221432D01*
Y279091D01*
X221049D01*
Y279474D01*
Y279857D01*
X221816D01*
Y280241D01*
X222199D01*
Y279857D01*
Y279474D01*
Y279091D01*
Y278707D01*
Y278324D01*
X222582D01*
Y277941D01*
Y277557D01*
Y277174D01*
Y276791D01*
Y276408D01*
Y276024D01*
X222199D01*
Y275641D01*
Y275258D01*
Y274874D01*
X222582D01*
Y274491D01*
X222199D01*
Y274108D01*
Y273725D01*
Y273341D01*
X222582D01*
Y272958D01*
Y272575D01*
Y272191D01*
Y271808D01*
X222199D01*
Y271425D01*
Y271041D01*
Y270658D01*
X222582D01*
Y270275D01*
Y269892D01*
Y269508D01*
X222199D01*
Y269125D01*
Y268742D01*
Y268358D01*
X221816D01*
Y267975D01*
X221432D01*
Y267592D01*
X221049D01*
Y267208D01*
X220666D01*
Y266825D01*
X220282D01*
Y266442D01*
X219899D01*
Y266058D01*
X219516D01*
Y265675D01*
X219132D01*
Y265292D01*
X218749D01*
Y264909D01*
X218366D01*
Y264525D01*
X217983D01*
Y264142D01*
X217599D01*
Y263759D01*
X217216D01*
Y263375D01*
X216833D01*
Y262992D01*
X216449D01*
Y262609D01*
X216066D01*
Y262226D01*
X215683D01*
Y261842D01*
X215300D01*
Y261459D01*
X214916D01*
Y261076D01*
X214533D01*
Y260692D01*
X214150D01*
Y260309D01*
X213766D01*
Y259926D01*
X213000D01*
Y259542D01*
Y259159D01*
X212616D01*
Y258776D01*
X212233D01*
Y258393D01*
X211850D01*
Y258009D01*
X211083D01*
Y257626D01*
Y257243D01*
X210700D01*
Y256859D01*
X210317D01*
Y257243D01*
Y257626D01*
Y258009D01*
X209550D01*
Y258393D01*
X209933D01*
Y258776D01*
Y259159D01*
Y259542D01*
Y259926D01*
Y260309D01*
Y260692D01*
Y261076D01*
X209167D01*
Y261459D01*
Y261842D01*
Y262226D01*
Y262609D01*
Y262992D01*
Y263375D01*
Y263759D01*
Y264142D01*
Y264525D01*
Y264909D01*
X208783D01*
Y265292D01*
Y265675D01*
Y266058D01*
Y266442D01*
Y266825D01*
Y267208D01*
Y267592D01*
Y267975D01*
X209167D01*
Y268358D01*
Y268742D01*
X209933D01*
Y269125D01*
X209550D01*
Y269508D01*
X209933D01*
Y269892D01*
X210317D01*
Y270275D01*
Y270658D01*
X210700D01*
Y271041D01*
Y271425D01*
X211083D01*
Y271808D01*
Y272191D01*
Y272575D01*
X211850D01*
Y272958D01*
X211467D01*
Y273341D01*
X212233D01*
Y273725D01*
Y274108D01*
Y274491D01*
X212616D01*
Y274874D01*
Y275258D01*
X213000D01*
Y275641D01*
Y276024D01*
Y276408D01*
X213766D01*
Y276791D01*
X213383D01*
Y277174D01*
X213766D01*
Y277557D01*
X214150D01*
Y277941D01*
X214533D01*
Y278324D01*
X215300D01*
Y278707D01*
X215683D01*
Y279091D01*
X216833D01*
Y279474D01*
Y279857D01*
X217216D01*
Y280241D01*
X218366D01*
Y280624D01*
X218749D01*
Y281007D01*
X219516D01*
Y281391D01*
X219899D01*
Y281007D01*
D02*
G37*
G36*
X237147Y260692D02*
Y260309D01*
X223349D01*
Y260692D01*
X222966D01*
Y261076D01*
X237147D01*
Y260692D01*
D02*
G37*
G36*
X228332Y272575D02*
X229098D01*
Y272191D01*
X229482D01*
Y271808D01*
Y271425D01*
X229865D01*
Y271041D01*
X230248D01*
Y270658D01*
X231015D01*
Y270275D01*
X231398D01*
Y269892D01*
X231015D01*
Y270275D01*
X223732D01*
Y270658D01*
Y271041D01*
Y271425D01*
Y271808D01*
Y272191D01*
Y272575D01*
X224882D01*
Y272958D01*
X228332D01*
Y272575D01*
D02*
G37*
G36*
X236381Y283307D02*
Y282924D01*
Y282540D01*
Y282157D01*
X233314D01*
Y282540D01*
X232548D01*
Y282924D01*
Y283307D01*
X232165D01*
Y283690D01*
X236381D01*
Y283307D01*
D02*
G37*
G36*
X234848Y286373D02*
X235231D01*
Y285990D01*
X234848D01*
Y285607D01*
X235614D01*
Y285223D01*
X224499D01*
Y285607D01*
X224882D01*
Y285990D01*
Y286373D01*
X225649D01*
Y285990D01*
Y285607D01*
X234081D01*
Y285990D01*
Y286373D01*
Y286757D01*
X234848D01*
Y286373D01*
D02*
G37*
G36*
X226032Y287140D02*
Y286757D01*
Y286373D01*
X225649D01*
Y286757D01*
Y287140D01*
Y287523D01*
X226032D01*
Y287140D01*
D02*
G37*
G36*
X229865Y281774D02*
X230248D01*
Y281391D01*
Y281007D01*
X231015D01*
Y280624D01*
X231398D01*
Y280241D01*
X231781D01*
Y279857D01*
X232165D01*
Y279474D01*
X232548D01*
Y279091D01*
X236381D01*
Y278707D01*
Y278324D01*
Y277941D01*
Y277557D01*
X235231D01*
Y277174D01*
Y276791D01*
X233314D01*
Y277174D01*
X232931D01*
Y277557D01*
X232548D01*
Y277941D01*
X232165D01*
Y278324D01*
X231781D01*
Y278707D01*
X231398D01*
Y279091D01*
X231015D01*
Y279474D01*
X230631D01*
Y279857D01*
X230248D01*
Y280241D01*
X229865D01*
Y280624D01*
X229482D01*
Y281007D01*
X229098D01*
Y281391D01*
X224882D01*
Y281774D01*
X224499D01*
Y282157D01*
X229865D01*
Y281774D01*
D02*
G37*
G36*
X227948Y276024D02*
X228332D01*
Y275641D01*
X228715D01*
Y275258D01*
X229098D01*
Y274874D01*
X229482D01*
Y274491D01*
X230248D01*
Y274108D01*
X230631D01*
Y273725D01*
X231015D01*
Y273341D01*
X231398D01*
Y272958D01*
X231781D01*
Y272575D01*
X232165D01*
Y272191D01*
X232548D01*
Y271808D01*
X232931D01*
Y271425D01*
X236381D01*
Y271041D01*
Y270658D01*
X235231D01*
Y270275D01*
X232931D01*
Y270658D01*
X232548D01*
Y271041D01*
X232165D01*
Y271425D01*
Y271808D01*
X231781D01*
Y272191D01*
X231015D01*
Y272575D01*
X230631D01*
Y272958D01*
X229865D01*
Y273341D01*
Y273725D01*
X229482D01*
Y274108D01*
Y274491D01*
X224882D01*
Y274874D01*
X223732D01*
Y275258D01*
Y275641D01*
Y276024D01*
Y276408D01*
X227948D01*
Y276024D01*
D02*
G37*
G36*
X240214Y281391D02*
X240597D01*
Y281007D01*
X241364D01*
Y280624D01*
X241747D01*
Y280241D01*
X242897D01*
Y279857D01*
X243280D01*
Y279474D01*
Y279091D01*
X244430D01*
Y278707D01*
X244813D01*
Y278324D01*
X245580D01*
Y277941D01*
X245963D01*
Y277557D01*
X246347D01*
Y277174D01*
X246730D01*
Y276791D01*
X246347D01*
Y276408D01*
X247113D01*
Y276024D01*
Y275641D01*
Y275258D01*
X247497D01*
Y274874D01*
Y274491D01*
X247880D01*
Y274108D01*
Y273725D01*
Y273341D01*
X248646D01*
Y272958D01*
X248263D01*
Y272575D01*
X249030D01*
Y272191D01*
Y271808D01*
Y271425D01*
X249413D01*
Y271041D01*
Y270658D01*
X249796D01*
Y270275D01*
Y269892D01*
X250180D01*
Y269508D01*
X250563D01*
Y269125D01*
X250180D01*
Y268742D01*
X250946D01*
Y268358D01*
Y267975D01*
X251330D01*
Y267592D01*
Y267208D01*
Y266825D01*
Y266442D01*
Y266058D01*
X250946D01*
Y265675D01*
Y265292D01*
Y264909D01*
Y264525D01*
Y264142D01*
Y263759D01*
Y263375D01*
Y262992D01*
Y262609D01*
Y262226D01*
Y261842D01*
X250563D01*
Y261459D01*
X250180D01*
Y261076D01*
Y260692D01*
Y260309D01*
Y259926D01*
Y259542D01*
Y259159D01*
X250563D01*
Y258776D01*
X249796D01*
Y258393D01*
Y258009D01*
Y257626D01*
Y257243D01*
Y256859D01*
X249413D01*
Y257243D01*
X249030D01*
Y257626D01*
Y258009D01*
X248263D01*
Y258393D01*
X247880D01*
Y258776D01*
X247497D01*
Y259159D01*
X247113D01*
Y259542D01*
Y259926D01*
X246347D01*
Y260309D01*
X245963D01*
Y260692D01*
X245580D01*
Y261076D01*
X245197D01*
Y261459D01*
X244813D01*
Y261842D01*
X244430D01*
Y262226D01*
X244047D01*
Y262609D01*
X243664D01*
Y262992D01*
X243280D01*
Y263375D01*
X242897D01*
Y263759D01*
X242514D01*
Y264142D01*
X242130D01*
Y264525D01*
X241747D01*
Y264909D01*
X241364D01*
Y265292D01*
X240981D01*
Y265675D01*
X240597D01*
Y266058D01*
X240214D01*
Y266442D01*
X239831D01*
Y266825D01*
X239447D01*
Y267208D01*
X239064D01*
Y267592D01*
X238681D01*
Y267975D01*
X238297D01*
Y268358D01*
X237914D01*
Y268742D01*
X237531D01*
Y269125D01*
Y269508D01*
Y269892D01*
Y270275D01*
Y270658D01*
Y271041D01*
Y271425D01*
Y271808D01*
Y272191D01*
Y272575D01*
Y272958D01*
Y273341D01*
Y273725D01*
Y274108D01*
Y274491D01*
Y274874D01*
Y275258D01*
Y275641D01*
Y276024D01*
Y276408D01*
Y276791D01*
Y277174D01*
Y277557D01*
Y277941D01*
Y278324D01*
Y278707D01*
Y279091D01*
Y279474D01*
Y279857D01*
Y280241D01*
Y280624D01*
X237914D01*
Y280241D01*
X238297D01*
Y279857D01*
X239064D01*
Y279474D01*
Y279091D01*
X238681D01*
Y278707D01*
X239447D01*
Y278324D01*
X239831D01*
Y277941D01*
Y277557D01*
Y277174D01*
X240597D01*
Y276791D01*
X240981D01*
Y276408D01*
X240597D01*
Y276024D01*
X241364D01*
Y275641D01*
Y275258D01*
X241747D01*
Y274874D01*
X242130D01*
Y274491D01*
Y274108D01*
X242897D01*
Y273725D01*
Y273341D01*
X243664D01*
Y273725D01*
Y274108D01*
Y274491D01*
X243280D01*
Y274874D01*
Y275258D01*
Y275641D01*
Y276024D01*
X242514D01*
Y276408D01*
X242130D01*
Y276791D01*
Y277174D01*
Y277557D01*
X241747D01*
Y277941D01*
Y278324D01*
Y278707D01*
X241364D01*
Y279091D01*
Y279474D01*
Y279857D01*
X240981D01*
Y280241D01*
Y280624D01*
X240214D01*
Y281007D01*
Y281391D01*
X239831D01*
Y281774D01*
X240214D01*
Y281391D01*
D02*
G37*
G36*
X228332Y279474D02*
X228715D01*
Y279091D01*
X229098D01*
Y278707D01*
X229482D01*
Y278324D01*
X229865D01*
Y277941D01*
X230248D01*
Y277557D01*
X230631D01*
Y277174D01*
X231015D01*
Y276791D01*
X231398D01*
Y276408D01*
X231781D01*
Y276024D01*
X232548D01*
Y275641D01*
X232931D01*
Y275258D01*
X233698D01*
Y274874D01*
X234464D01*
Y275258D01*
X234848D01*
Y274874D01*
X235614D01*
Y274491D01*
X236381D01*
Y274108D01*
Y273725D01*
X233698D01*
Y274108D01*
X232931D01*
Y274491D01*
X232548D01*
Y274874D01*
X232165D01*
Y275258D01*
Y275641D01*
X231781D01*
Y276024D01*
X231015D01*
Y276408D01*
X230631D01*
Y276791D01*
X229865D01*
Y277174D01*
Y277557D01*
X229098D01*
Y277941D01*
X228715D01*
Y278324D01*
X223732D01*
Y278707D01*
Y279091D01*
X224499D01*
Y279474D01*
Y279857D01*
X228332D01*
Y279474D01*
D02*
G37*
D15*
X153500Y180000D02*
Y360000D01*
X306500Y180000D02*
Y360000D01*
X153500D02*
X306500D01*
X153500Y180000D02*
X306500D01*
D21*
X195000Y345000D02*
X205000D01*
X195000Y195000D02*
X205000D01*
X195000D02*
Y202500D01*
Y345000D01*
X205000Y195000D02*
Y345000D01*
X255000D02*
X265000D01*
X255000Y195000D02*
X265000D01*
X255000D02*
Y202500D01*
Y345000D01*
X265000Y195000D02*
Y345000D01*
X215000Y228500D02*
Y238500D01*
X245000D01*
Y228500D02*
Y238500D01*
X215000Y228500D02*
X245000D01*
Y305000D02*
Y315000D01*
X215000Y305000D02*
X245000D01*
X215000D02*
Y315000D01*
X245000D01*
D22*
X195650Y352849D02*
Y348350D01*
Y350599D01*
X198649D01*
Y352849D01*
Y348350D01*
X200149D02*
X201648D01*
X200898D01*
Y352849D01*
X200149Y352099D01*
X255650Y352849D02*
Y348350D01*
Y350599D01*
X258649D01*
Y352849D01*
Y348350D01*
X263148D02*
X260149D01*
X263148Y351349D01*
Y352099D01*
X262398Y352849D01*
X260898D01*
X260149Y352099D01*
X224000Y297500D02*
Y301998D01*
X225500Y300499D01*
X226999Y301998D01*
Y297500D01*
X228499D02*
Y300499D01*
X229998Y301998D01*
X231498Y300499D01*
Y297500D01*
Y299749D01*
X228499D01*
X235996Y301249D02*
X235246Y301998D01*
X233747D01*
X232997Y301249D01*
Y298250D01*
X233747Y297500D01*
X235246D01*
X235996Y298250D01*
Y299749D01*
X234497D01*
X219500Y242000D02*
Y246498D01*
X221749D01*
X222499Y245749D01*
Y244249D01*
X221749Y243499D01*
X219500D01*
X226248Y246498D02*
X224748D01*
X223998Y245749D01*
Y242750D01*
X224748Y242000D01*
X226248D01*
X226998Y242750D01*
Y245749D01*
X226248Y246498D01*
X228497D02*
Y242000D01*
X229997Y243499D01*
X231496Y242000D01*
Y246498D01*
X235995D02*
X232996D01*
Y242000D01*
X235995D01*
X232996Y244249D02*
X234495D01*
X237494Y242000D02*
Y246498D01*
X239743D01*
X240493Y245749D01*
Y244249D01*
X239743Y243499D01*
X237494D01*
X238994D02*
X240493Y242000D01*
X273000Y294000D02*
Y298499D01*
X275249D01*
X275999Y297749D01*
Y296249D01*
X275249Y295499D01*
X273000D01*
X274500D02*
X275999Y294000D01*
X277499D02*
X278998D01*
X278248D01*
Y298499D01*
X277499Y297749D01*
X181000Y294000D02*
Y298499D01*
X183249D01*
X183999Y297749D01*
Y296249D01*
X183249Y295499D01*
X181000D01*
X182500D02*
X183999Y294000D01*
X188498D02*
X185499D01*
X188498Y296999D01*
Y297749D01*
X187748Y298499D01*
X186248D01*
X185499Y297749D01*
X181075Y253847D02*
Y258345D01*
X183324D01*
X184074Y257595D01*
Y256096D01*
X183324Y255346D01*
X181075D01*
X182574D02*
X184074Y253847D01*
X185573Y257595D02*
X186323Y258345D01*
X187823D01*
X188572Y257595D01*
Y256845D01*
X187823Y256096D01*
X187073D01*
X187823D01*
X188572Y255346D01*
Y254596D01*
X187823Y253847D01*
X186323D01*
X185573Y254596D01*
X271500Y254000D02*
Y258499D01*
X273749D01*
X274499Y257749D01*
Y256249D01*
X273749Y255500D01*
X271500D01*
X273000D02*
X274499Y254000D01*
X278248D02*
Y258499D01*
X275998Y256249D01*
X278998D01*
X271500Y214000D02*
Y218498D01*
X273749D01*
X274499Y217749D01*
Y216249D01*
X273749Y215499D01*
X271500D01*
X273000D02*
X274499Y214000D01*
X278998Y218498D02*
X275998D01*
Y216249D01*
X277498Y216999D01*
X278248D01*
X278998Y216249D01*
Y214750D01*
X278248Y214000D01*
X276748D01*
X275998Y214750D01*
X181000Y213600D02*
Y218098D01*
X183249D01*
X183999Y217349D01*
Y215849D01*
X183249Y215100D01*
X181000D01*
X182500D02*
X183999Y213600D01*
X188498Y218098D02*
X186998Y217349D01*
X185499Y215849D01*
Y214350D01*
X186248Y213600D01*
X187748D01*
X188498Y214350D01*
Y215100D01*
X187748Y215849D01*
X185499D01*
X280610Y319390D02*
Y323888D01*
X282859D01*
X283609Y323138D01*
Y321639D01*
X282859Y320889D01*
X280610D01*
X282110D02*
X283609Y319390D01*
X288108Y323888D02*
X285109D01*
Y319390D01*
X288108D01*
X285109Y321639D02*
X286608D01*
X289607Y323888D02*
Y319390D01*
X291857D01*
X292606Y320140D01*
Y323138D01*
X291857Y323888D01*
X289607D01*
X294106Y319390D02*
X295605D01*
X294856D01*
Y323888D01*
X294106Y323138D01*
X163878Y279528D02*
Y284026D01*
X166127D01*
X166877Y283276D01*
Y281777D01*
X166127Y281027D01*
X163878D01*
X165377D02*
X166877Y279528D01*
X171376Y284026D02*
X168377D01*
Y279528D01*
X171376D01*
X168377Y281777D02*
X169876D01*
X172875Y284026D02*
Y279528D01*
X175124D01*
X175874Y280277D01*
Y283276D01*
X175124Y284026D01*
X172875D01*
X180373Y279528D02*
X177374D01*
X180373Y282527D01*
Y283276D01*
X179623Y284026D01*
X178123D01*
X177374Y283276D01*
X280000Y239000D02*
Y243498D01*
X282249D01*
X282999Y242749D01*
Y241249D01*
X282249Y240499D01*
X280000D01*
X281500D02*
X282999Y239000D01*
X287498Y243498D02*
X284499D01*
Y239000D01*
X287498D01*
X284499Y241249D02*
X285998D01*
X288997Y243498D02*
Y239000D01*
X291246D01*
X291996Y239750D01*
Y242749D01*
X291246Y243498D01*
X288997D01*
X293496Y242749D02*
X294245Y243498D01*
X295745D01*
X296495Y242749D01*
Y241999D01*
X295745Y241249D01*
X294995D01*
X295745D01*
X296495Y240499D01*
Y239750D01*
X295745Y239000D01*
X294245D01*
X293496Y239750D01*
X247800Y297000D02*
X252298D01*
Y294751D01*
X251549Y294001D01*
X250049D01*
X249300Y294751D01*
Y297000D01*
Y295500D02*
X247800Y294001D01*
Y292501D02*
X252298D01*
Y290252D01*
X251549Y289502D01*
X250049D01*
X249300Y290252D01*
Y292501D01*
X164665Y323987D02*
Y319488D01*
X166165Y320988D01*
X167664Y319488D01*
Y323987D01*
X169164D02*
Y319488D01*
Y321738D01*
X172163D01*
Y323987D01*
Y319488D01*
X173662Y323987D02*
X176662D01*
X175162D01*
Y319488D01*
X178161D02*
X179660D01*
X178911D01*
Y323987D01*
X178161Y323237D01*
X279921Y283829D02*
Y279331D01*
X281421Y280830D01*
X282920Y279331D01*
Y283829D01*
X284420D02*
Y279331D01*
Y281580D01*
X287419D01*
Y283829D01*
Y279331D01*
X288918Y283829D02*
X291917D01*
X290418D01*
Y279331D01*
X296416D02*
X293417D01*
X296416Y282330D01*
Y283080D01*
X295666Y283829D01*
X294167D01*
X293417Y283080D01*
X163878Y243869D02*
Y239370D01*
X165377Y240870D01*
X166877Y239370D01*
Y243869D01*
X168377D02*
Y239370D01*
Y241619D01*
X171376D01*
Y243869D01*
Y239370D01*
X172875Y243869D02*
X175874D01*
X174375D01*
Y239370D01*
X177374Y243119D02*
X178123Y243869D01*
X179623D01*
X180373Y243119D01*
Y242369D01*
X179623Y241619D01*
X178873D01*
X179623D01*
X180373Y240870D01*
Y240120D01*
X179623Y239370D01*
X178123D01*
X177374Y240120D01*
X238500Y350749D02*
X241499D01*
X228500D02*
X231499D01*
X229999Y352249D02*
Y349250D01*
D23*
X267500Y341499D02*
Y339166D01*
X268666Y338000D01*
X269833Y339166D01*
Y341499D01*
X270999D02*
X272165D01*
X271582D01*
Y338000D01*
X270999D01*
X272165D01*
X273915D02*
Y341499D01*
X276247Y338000D01*
Y341499D01*
X269833Y330916D02*
X269249Y331499D01*
X268083D01*
X267500Y330916D01*
Y328583D01*
X268083Y328000D01*
X269249D01*
X269833Y328583D01*
Y329749D01*
X268666D01*
X270999Y328000D02*
Y331499D01*
X273331Y328000D01*
Y331499D01*
X274498D02*
Y328000D01*
X276247D01*
X276830Y328583D01*
Y330916D01*
X276247Y331499D01*
X274498D01*
X267500Y318000D02*
Y321499D01*
X269249D01*
X269833Y320916D01*
Y319749D01*
X269249Y319166D01*
X267500D01*
X268666D02*
X269833Y318000D01*
X273331Y320916D02*
X272748Y321499D01*
X271582D01*
X270999Y320916D01*
Y320333D01*
X271582Y319749D01*
X272748D01*
X273331Y319166D01*
Y318583D01*
X272748Y318000D01*
X271582D01*
X270999Y318583D01*
X274498Y321499D02*
X276830D01*
X275664D01*
Y318000D01*
X269833Y311499D02*
X267500D01*
Y309749D01*
X268666Y310333D01*
X269249D01*
X269833Y309749D01*
Y308583D01*
X269249Y308000D01*
X268083D01*
X267500Y308583D01*
X270999Y311499D02*
Y309166D01*
X272165Y308000D01*
X273331Y309166D01*
Y311499D01*
X231499Y197667D02*
Y200000D01*
X229749D01*
X230333Y198834D01*
Y198251D01*
X229749Y197667D01*
X228583D01*
X228000Y198251D01*
Y199417D01*
X228583Y200000D01*
X231499Y196501D02*
X229166D01*
X228000Y195335D01*
X229166Y194169D01*
X231499D01*
X220916Y197667D02*
X221499Y198251D01*
Y199417D01*
X220916Y200000D01*
X218583D01*
X218000Y199417D01*
Y198251D01*
X218583Y197667D01*
X219749D01*
Y198834D01*
X218000Y196501D02*
X221499D01*
X218000Y194169D01*
X221499D01*
Y193002D02*
X218000D01*
Y191253D01*
X218583Y190670D01*
X220916D01*
X221499Y191253D01*
Y193002D01*
X242499Y200000D02*
X239000D01*
X240166D01*
X242499Y197667D01*
X240749Y199417D01*
X239000Y197667D01*
X242499Y196501D02*
Y195335D01*
Y195918D01*
X239000D01*
Y196501D01*
Y195335D01*
X242499Y193585D02*
X239000D01*
Y191253D01*
X242499Y190086D02*
X239000D01*
Y187754D01*
X216749Y351999D02*
X215583D01*
X215000Y351416D01*
Y349083D01*
X215583Y348500D01*
X216749D01*
X217333Y349083D01*
Y351416D01*
X216749Y351999D01*
X218499D02*
Y349083D01*
X219082Y348500D01*
X220248D01*
X220831Y349083D01*
Y351999D01*
X221998D02*
X224330D01*
X223164D01*
Y348500D01*
M02*
