M48
;Layer_Color=9474304
;FILE_FORMAT=2:5
INCH,LZ
;TYPE=PLATED
T1F00S00C0.02800
T2F00S00C0.03543
T3F00S00C0.14950
%
T01
X0175874Y0208974
Y0248974
Y0289126
X0284126Y0289026
Y0248926
Y0209026
T02
X02Y02
Y021
Y022
Y023
Y024
Y025
Y026
Y027
Y028
Y029
Y03
Y031
X022
X023
X024
X026
Y03
Y029
Y028
Y027
Y026
Y025
Y024
Y023
Y022
Y021
Y02
X024Y02335
X023
X022
X02Y032
Y033
Y034
X026
Y033
Y032
T03
X017Y0195
X029
X029252Y0345
X017
M30
